<svg width="381" height="76" viewBox="0 0 381 76" fill="none" xmlns="http://www.w3.org/2000/svg">
<g clip-path="url(#clip0_301_4)">
<path d="M381 12V51.3994L380.781 54.0691L379.068 54.4136H376.278V48.8158L373.897 51.5221C370.963 54.2284 368.173 55.1047 364.258 55.0595C362.721 55.0401 361.184 54.6504 359.75 54.1079C351.445 50.9624 348.535 40.5075 351.69 32.6685C353.721 27.6241 358.709 23.6519 364.258 23.6261H365.331C368.821 23.6325 372.06 25.0556 374.524 27.538L376.278 29.6544V12H381ZM213.789 48.4154C217.213 50.3315 219.858 50.5813 223.663 50.5382C224.698 50.5253 225.694 50.3703 226.668 50.0129C229.231 49.0764 231.472 46.9514 231.597 44.0793C231.796 39.4784 227.787 37.9649 224.093 36.9121C218.413 35.293 209.926 34.5223 207.975 27.7167C207.691 26.7285 207.578 26.1644 207.565 25.1331C207.545 23.3871 207.547 22.2998 208.144 20.6119C210.746 13.2466 219.849 12.1163 226.454 13.5975C228.905 14.1487 231.247 15.1455 233.322 16.5622C234.005 17.0293 235.291 17.6752 234.917 18.6742C234.653 19.3804 233.058 21.5527 232.247 21.4645C231.811 21.4171 231.12 20.8702 230.747 20.6184C229.809 19.9832 228.783 19.3352 227.742 18.8917C224.314 17.4384 219.868 16.6784 216.365 18.3125C214.139 19.3524 212.15 21.6712 212.356 24.2719C212.594 27.2646 214.609 28.8922 217.224 29.9558C222.077 31.9279 228.439 32.0743 232.678 35.3662C239.247 40.4645 237.053 50.5081 229.673 53.6751C227.162 54.7537 224.44 55.0896 221.731 55.0595C217.492 55.0099 212.813 53.4943 209.282 51.1669C208.451 50.62 205.944 49.0914 206.309 47.9547C206.466 47.4681 208.187 45.539 208.638 44.9405L213.789 48.4154ZM93.5866 16.3059C93.5866 15.7591 93.4922 14.2499 93.8055 13.8516C94.1425 13.4253 95.0247 13.5071 95.5184 13.5071H103.89C110.265 13.5071 115.884 13.4877 121.491 17.1025C133.758 25.0126 133.339 43.8468 120.847 51.3025C115.322 54.5987 111.059 54.4136 104.963 54.4136H93.5866V16.3059ZM106.465 47.7394C110.531 47.7394 113.931 47.7307 117.413 45.2032C120.465 42.9856 122.519 39.0392 122.564 35.2521V32.8838C122.51 28.4358 119.81 24.0588 115.91 21.9726C114.079 20.993 111.975 20.4074 109.9 20.3966H100.885V47.7394H106.465ZM149.824 48.8331C150.822 49.0957 152.007 49.0419 153.044 49.0311C153.961 49.0204 154.525 48.9429 155.405 48.6544C156.459 48.3077 157.515 47.7135 158.41 47.059C158.797 46.777 159.758 45.9545 160.127 45.834C161.059 45.5347 162.892 47.5068 163.558 48.1355C163.856 48.4154 164.377 48.8158 164.377 49.2658C164.377 49.9483 162.8 51.2982 162.274 51.731C158.509 54.8248 155.306 55.1133 150.683 55.0595C142.906 54.9669 136.392 47.8685 136.302 40.204C136.237 34.6299 137.489 30.0462 141.882 26.2742C145.121 23.4926 148.294 22.9328 152.4 22.9802C157.429 23.0404 161.823 26.0611 164.077 30.5156C165.32 32.9743 166.236 37.0176 166.129 39.7734L165.923 41.711H143.6C144.304 45.2118 146.257 47.8944 149.824 48.8331ZM176.011 23.6261L177.589 23.8392L178.383 25.3484L179.65 28.7932L183.728 39.9887L185.885 45.8017L188.156 39.3428L192.258 28.1473L193.827 23.6261H201.554L197.352 34.1756L191.955 47.5241L189.964 52.4759C189.762 52.9818 189.393 54.11 188.965 54.4157C188.592 54.6827 187.838 54.6289 187.388 54.6289H183.739C182.331 54.6052 182.365 54.349 181.594 52.4759L179.575 47.5241L173.56 32.6685L170.001 23.6261H176.011ZM265.09 52.6567C258.683 57.3438 249.232 54.9561 245.315 48.17C240.676 40.1329 243.147 28.2593 252.211 24.5841C254.354 23.7165 255.959 23.6002 258.222 23.6261C259.904 23.6476 261.628 24.0717 263.158 24.7693C265.685 25.9211 266.968 27.3938 268.739 29.4391V24.2719H273.462V63.6714H268.739V53.983L268.525 48.8158C267.861 50.3724 266.438 51.6707 265.09 52.6567ZM330.987 23.8414C335.896 23.85 340.623 25.9857 342.252 30.9462C343.261 34.012 343.007 37.0283 343.007 40.204V54.4136H338.5V50.3229C337.06 51.7654 336.061 52.7579 334.207 53.688C329.813 55.8927 323.155 55.574 319.396 52.2219C316.889 49.9828 316.569 47.8858 316.606 44.7252C316.625 43.1492 317.041 41.739 317.915 40.4192C319.209 38.4665 321.281 37.1919 323.474 36.4901C325.93 35.7021 328.441 35.6526 330.987 35.6827C332.943 35.7064 336.673 36.3006 338.5 36.9745C338.5 35.7021 338.429 34.5459 338.062 33.3144C336.291 27.3679 329.42 27.4627 324.548 28.7674L320.469 30.085L319.182 26.4249C322.938 24.2892 326.763 23.8349 330.987 23.8414ZM287.414 24.2719V41.4957C287.418 44.0513 287.974 46.665 289.839 48.536C293.456 52.1637 299.801 51.1303 302.645 47.0935C304.676 44.2085 304.371 41.5862 304.371 38.2663V24.2719H309.093V54.4136H304.371L304.156 49.677C303.422 51.3994 301.885 52.6675 300.293 53.5804C295.22 56.4826 287.656 55.2941 284.507 50.1076C282.417 46.6607 282.691 43.3904 282.691 39.5581V24.2719H287.414ZM249.275 33.0991C245.729 39.7432 249.005 50.6523 257.578 50.7535H258.865C262.779 50.7062 266.309 48.0149 267.902 44.5099C271 37.6957 267.059 28.0289 258.865 27.9643H256.504C253.304 28.5284 250.825 30.1991 249.275 33.0991ZM357.06 32.4532C352.926 39.1705 356.165 50.648 365.116 50.7535C369.362 50.803 372.698 49.1603 374.891 45.3711C376.297 42.9425 376.308 40.9532 376.278 38.2663C376.228 34.1692 373.395 30.141 369.624 28.6231C367.709 27.8523 365.861 27.7942 363.828 27.9966C361.021 28.5284 358.589 29.9687 357.06 32.4532ZM154.547 29.6544C153.351 29.0537 152.2 28.9934 150.898 29.0085C146.74 29.0559 143.69 32.7374 143.6 36.7592H158.84C158.597 33.8548 157.243 31.0065 154.547 29.6544ZM328.626 39.3428C326.817 39.3643 324.655 39.909 323.26 41.1104C320.845 43.1923 320.57 46.932 322.85 49.2271C324.773 51.1626 327.171 51.2121 329.699 51.1841C334.239 51.1303 338.476 48.0279 338.5 43.2181V40.4192C333.735 39.459 333.629 39.2846 328.626 39.3428Z" fill="#1D1F24"/>
<path d="M61.6039 2.45643e-05C68.7689 -0.0128933 74.6867 5.07028 74.6975 12.4636V62.6279C74.6867 70.0212 68.7689 75.1043 61.6039 75.1151H12.8789C6.12605 75.1043 0.0107324 70.0772 0 63.0585V12.033C0.00858591 7.18019 3.28197 2.73645 7.72732 0.934415C8.9637 0.434925 9.87166 0.279911 11.1617 2.45643e-05H61.6039ZM29.8361 7.94019L27.6896 9.88863L23.8259 13.7468L19.1037 18.2766C18.0412 19.3423 14.2226 22.6945 13.7418 23.659C13.482 24.1822 13.525 24.8109 13.5228 25.3814V35.931C13.5228 36.381 13.4971 37.0204 13.6516 37.4381C14.0058 38.4048 16.1244 40.209 16.9572 40.9431L24.0406 47.9876L28.9775 52.9395C29.5076 53.467 30.2782 54.4896 31.1154 54.0719C31.5361 53.861 32.283 52.8986 32.6458 52.5089L35.8462 49.2794C36.2605 48.8553 37.0139 48.2266 36.8465 47.5571C36.6962 46.9499 34.2793 44.6936 33.6997 44.1123L25.5431 35.7157L22.3234 32.2709C21.9091 31.8447 21.1235 31.2203 21.2909 30.5486C21.3811 30.1955 21.9821 29.5517 22.2332 29.2568L24.8992 26.4579L33.6997 17.4154C34.4789 16.6339 36.9001 14.4099 37.2199 13.5401C37.3745 13.1224 37.3487 12.483 37.3487 12.033V7.72705L37.5634 4.49759V0.622234C35.7367 1.93339 31.6327 6.18121 29.8361 7.94019ZM40.7831 71.0331L45.72 66.2879L48.2958 63.9003L52.5887 59.6223L55.5938 56.8148L58.5989 53.8201C60.2967 52.2333 61.1704 52.1838 61.1746 49.71V39.3758C61.1746 38.9258 61.2004 38.2863 61.0459 37.8687C60.7411 37.0398 58.8693 35.3411 58.1696 34.6392L45.72 22.152C45.1769 21.6116 44.4343 20.6083 43.5735 21.0195C42.8394 21.3726 39.9052 24.7463 39.0659 25.5967C38.6173 26.051 37.6707 26.8196 37.851 27.5344C38.0056 28.1609 40.6007 30.5701 41.2103 31.1945L43.361 33.5627L49.4291 39.8063L52.5866 43.0358C52.9601 43.4255 53.5654 43.9379 53.4044 44.5429C53.2906 44.9778 52.49 45.7163 52.1594 46.05L49.3604 49.0641L43.1464 55.3078L41.2038 57.4607L37.6922 61.1208C37.2436 61.8313 37.3444 63.2264 37.1792 64.1349V74.4692C38.4928 73.4939 39.5789 72.1871 40.7831 71.0331Z" fill="#4876BB"/>
</g>
<defs>
<clipPath id="clip0_301_4">
<rect width="381" height="76" fill="white"/>
</clipPath>
</defs>
</svg>
