<?xml version="1.0" encoding="UTF-8"?>
<svg width="140px" height="24px" viewBox="0 0 140 24" version="1.1" xmlns="http://www.w3.org/2000/svg" xmlns:xlink="http://www.w3.org/1999/xlink">
    <!-- Generator: Sketch 52.2 (67145) - http://www.bohemiancoding.com/sketch -->
    <title>huv_logo_color</title>
    <desc>Created with Sketch.</desc>
    <g id="Symbols" stroke="none" stroke-width="1" fill="none" fill-rule="evenodd">
        <g id="Atom/Brand/Logo/colored" fill-rule="nonzero">
            <g id="huv_logo_color">
                <path d="M94.9954338,6.74594595 C98.8310502,5.38378378 102.666667,4.34594595 106.56621,3.82702703 C103.178082,3.11351351 99.8538813,2.78918919 96.5296804,2.85405405 L94.9954338,6.74594595 Z M90.9680365,17.1243243 C102.858447,12.5837838 114.684932,5.38378378 126.639269,3.76216216 C115.707763,1.42702703 104.840183,4.60540541 93.9726027,9.40540541 L90.9680365,17.1243243 Z M139.872146,2.85405405 C123.506849,2.01081081 106.438356,14.9837838 89.8812785,19.8486486 L89.8812785,19.9135135 L89.43379,21.0162162 L89.5616438,21.0162162 C89.7534247,21.0162162 90.0091324,21.0162162 90.2009132,21.0162162 L90.456621,21.0162162 L90.8401826,21.0162162 C105.287671,21.0162162 119.926941,12.2594595 134.502283,6.94054054 C136.86758,6.0972973 138.721461,4.67027027 139.872146,2.85405405 Z M139.872146,6.74594595 C129.004566,11.1567568 117.753425,18.3567568 106.56621,20.7567568 C115.452055,21.9243243 124.210046,19.9783784 132.90411,16.4108108 C137.378995,14.5297297 140.127854,10.7675676 139.872146,6.74594595 Z M139.872146,16.1513514 C135.525114,18.0972973 131.050228,19.7837838 126.639269,20.7567568 C129.13242,21.0810811 131.561644,21.2108108 134.054795,21.0810811 C137.315068,20.8864865 139.872146,18.7459459 139.872146,16.1513514 Z" id="Shape" fill="#325F8C"></path>
                <path d="M40.8493151,21.0810811 L41.6164384,20.3675676 L41.6164384,2.78918919 C37.8447489,2.78918919 37.2694064,2.78918919 33.4977169,2.78918919 L33.4977169,4.86486486 L20.7762557,4.86486486 L20.7762557,2.78918919 L0,2.78918919 L0,20.3675676 L0.767123288,21.0810811 C10.9954338,21.0810811 30.6210046,21.0810811 40.8493151,21.0810811 Z" id="Shape" fill="#325F8C"></path>
                <path d="M96.4018265,0 L86.8127854,23.6756757 L80.3561644,23.6756757 L79.1415525,20.627027 C79.3972603,20.5621622 79.652968,20.4972973 79.9726027,20.3675676 C80.739726,20.172973 81.3150685,19.9135135 81.826484,19.6540541 C82.3378995,19.3945946 82.7214612,19.0702703 82.9771689,18.7459459 L83.2328767,18.3567568 L82.913242,18.0324324 L82.4657534,17.6432432 L82.2100457,17.3837838 L81.890411,17.5783784 C81.890411,17.5783784 81.890411,17.5783784 81.826484,17.5783784 C81.6347032,17.5783784 81.2511416,17.4486486 80.8675799,17.1891892 C80.4840183,16.9945946 80.1004566,16.6702703 79.5890411,16.3459459 C79.9086758,16.0216216 80.2922374,15.6972973 80.6118721,15.3081081 C81.1232877,14.7243243 81.6986301,14.0108108 82.2739726,13.2324324 L82.6575342,12.7135135 L82.0182648,12.4540541 L78.1187215,11.027027 L77.7351598,10.8972973 L77.543379,11.2864865 C77.3515982,11.6108108 77.0958904,11.9351351 76.7762557,12.2594595 C76.5844749,12.5189189 76.3287671,12.7135135 76.0730594,12.972973 L75.4977169,11.5459459 C75.5616438,11.5459459 75.6255708,11.4810811 75.6255708,11.4162162 C76.0730594,11.0918919 76.3926941,10.7675676 76.7123288,10.4432432 C77.0319635,10.0540541 77.2876712,9.6 77.4794521,9.08108108 C77.6712329,8.56216216 77.7351598,8.04324324 77.7351598,7.39459459 C77.7351598,6.55135135 77.543379,5.83783784 77.1598174,5.18918919 C76.7762557,4.54054054 76.2648402,4.02162162 75.5616438,3.56756757 C74.9863014,3.17837838 74.347032,2.91891892 73.6438356,2.72432432 C73.0684932,2.59459459 72.4931507,2.46486486 71.8538813,2.46486486 L70.8310502,0 L79.4611872,0 L84.0639269,14.1405405 C84.1278539,14.0756757 85.5981735,9.34054054 88.4748858,0 L96.4018265,0 Z" id="Shape" fill="#9E9D9D"></path>
                <path d="M78.7579909,19.7189189 L76.456621,14.0108108 C76.8401826,13.6864865 77.2237443,13.3621622 77.543379,13.0378378 C77.7990868,12.7783784 77.9908676,12.5189189 78.1826484,12.2594595 L81.0593607,13.2972973 C80.6757991,13.8162162 80.2922374,14.3351351 79.9086758,14.7243243 C79.3972603,15.3081081 78.9497717,15.7621622 78.5022831,16.0864865 L77.9908676,16.4756757 L78.5022831,16.8648649 C79.2054795,17.4486486 79.8447489,17.9027027 80.3561644,18.227027 C80.8675799,18.4864865 81.2511416,18.6810811 81.6347032,18.7459459 C81.5707763,18.8108108 81.5068493,18.8108108 81.3789954,18.8756757 C80.9315068,19.0702703 80.4200913,19.3297297 79.716895,19.5243243 C79.3333333,19.5891892 79.0776256,19.6540541 78.7579909,19.7189189 Z" id="Shape" fill="#9E9D9D"></path>
                <path d="M75.1141553,10.6378378 L73.7077626,7.13513514 C73.7077626,7.00540541 73.6438356,6.87567568 73.5799087,6.81081081 C73.5159817,6.74594595 73.5159817,6.68108108 73.4520548,6.61621622 L72.2374429,3.56756757 C72.6210046,3.63243243 73.0045662,3.6972973 73.3881279,3.76216216 C73.9634703,3.89189189 74.5388128,4.15135135 75.0502283,4.47567568 C75.6255708,4.86486486 76.0091324,5.25405405 76.3287671,5.77297297 C76.5844749,6.29189189 76.7123288,6.81081081 76.7123288,7.45945946 C76.7123288,7.97837838 76.6484018,8.43243243 76.5205479,8.82162162 C76.3926941,9.21081081 76.2009132,9.6 75.9452055,9.85945946 C75.7534247,10.1189189 75.43379,10.3783784 75.1141553,10.6378378 Z" id="Shape" fill="#9E9D9D"></path>
                <path d="M42.9589041,19.4594595 L42.9589041,15.9567568 L42.9589041,7.52432432 L42.9589041,4.8 L42.9589041,0.259459459 L42.9589041,0 L51.0776256,0 L51.0776256,8.4972973 L58.4292237,8.4972973 L58.4292237,0 L66.5479452,0 L66.5479452,4.02162162 C66.0365297,4.41081081 65.652968,4.86486486 65.3972603,5.38378378 C65.0136986,6.03243243 64.8219178,6.81081081 64.8219178,7.65405405 C64.8219178,8.36756757 65.0136986,9.01621622 65.3333333,9.72972973 C65.5890411,10.1837838 65.9086758,10.7027027 66.2922374,11.1567568 C65.2054795,11.6108108 64.3744292,12.1945946 63.7990868,12.9081081 C63.0319635,13.7513514 62.7123288,14.7891892 62.7123288,16.0216216 C62.7123288,16.9297297 62.9041096,17.7081081 63.2876712,18.4216216 C63.6712329,19.1351351 64.1826484,19.7189189 64.8858447,20.172973 C65.3972603,20.4972973 65.9726027,20.7567568 66.5479452,20.9513514 L66.5479452,23.7405405 L58.4292237,23.7405405 L58.4292237,14.8540541 L51.0776256,14.8540541 L51.0776256,23.7405405 L42.9589041,23.7405405 L42.9589041,23.2216216 L42.9589041,19.4594595 Z" id="Shape" fill="#9E9D9D"></path>
                <path d="M66.5479452,5.44864865 L66.5479452,9.85945946 C66.4200913,9.66486486 66.2922374,9.47027027 66.2283105,9.27567568 C65.9726027,8.75675676 65.8447489,8.17297297 65.8447489,7.65405405 C65.8447489,7.00540541 65.9726027,6.35675676 66.2922374,5.83783784 C66.2922374,5.77297297 66.4200913,5.57837838 66.5479452,5.44864865 Z" id="Shape" fill="#9E9D9D"></path>
                <path d="M66.5479452,12.1945946 L66.5479452,19.8486486 C66.1004566,19.7189189 65.716895,19.5243243 65.3972603,19.3297297 C64.8219178,18.9405405 64.3744292,18.4864865 64.1187215,17.9675676 C63.8630137,17.4486486 63.6712329,16.8 63.6712329,16.0864865 C63.6712329,15.1135135 63.9908676,14.3351351 64.56621,13.6216216 C65.0136986,13.0378378 65.716895,12.5837838 66.5479452,12.1945946 Z" id="Shape" fill="#9E9D9D"></path>
                <path d="M72.3013699,16.4756757 L69.4246575,13.6864865 C68.5296804,14.1405405 68.0821918,14.6594595 68.0821918,15.4378378 C68.0821918,15.9567568 68.2739726,16.4108108 68.7214612,16.7351351 C69.1050228,17.0594595 69.5525114,17.1891892 70.1278539,17.1891892 C70.8310502,17.1891892 71.5342466,16.9297297 72.3013699,16.4756757 Z M73.260274,7.58918919 C73.260274,7.13513514 73.1324201,6.81081081 72.8127854,6.55135135 C72.4931507,6.29189189 72.109589,6.16216216 71.6621005,6.16216216 C71.2785388,6.16216216 70.8949772,6.29189189 70.5753425,6.48648649 C70.2557078,6.74594595 70.1278539,7.00540541 70.1278539,7.39459459 C70.1278539,7.97837838 70.5753425,8.69189189 71.5342466,9.53513514 C72.6849315,8.95135135 73.260274,8.3027027 73.260274,7.58918919 Z M82.5296804,18.5513514 C82.1461187,19.0702703 81.2511416,19.5243243 79.7808219,19.9783784 C78.5022831,20.3675676 77.4794521,20.5621622 76.6484018,20.5621622 C76.3287671,20.5621622 75.6894977,20.1081081 74.8584475,19.2648649 C73.3242009,20.2378378 71.4703196,20.7567568 69.2328767,20.7567568 C67.5707763,20.7567568 66.1643836,20.4324324 65.0776256,19.7189189 C63.7990868,18.8756757 63.1598174,17.6432432 63.1598174,16.0216216 C63.1598174,13.8810811 64.5022831,12.3243243 67.1232877,11.4162162 C65.9086758,10.1837838 65.2694064,8.95135135 65.2694064,7.71891892 C65.2694064,6.22702703 65.9086758,4.99459459 67.2511416,4.15135135 C68.4018265,3.37297297 69.7442922,2.98378378 71.3424658,2.98378378 C72.8767123,2.98378378 74.1552511,3.30810811 75.2420091,4.02162162 C76.5205479,4.86486486 77.1598174,5.96756757 77.1598174,7.45945946 C77.1598174,8.56216216 76.8401826,9.47027027 76.2648402,10.1837838 C75.7534247,10.7675676 74.9863014,11.3513514 73.8995434,11.8054054 L75.8812785,13.6864865 C76.8401826,12.972973 77.4794521,12.2594595 77.8630137,11.5459459 L81.7625571,12.972973 C80.6757991,14.5297297 79.652968,15.6972973 78.6940639,16.4108108 C80.1004566,17.5783784 81.1232877,18.1621622 81.6986301,18.1621622 C81.826484,18.1621622 81.890411,18.1621622 82.0182648,18.0972973 L82.5296804,18.5513514 Z" id="Shape" fill="#325F8C"></path>
            </g>
        </g>
    </g>
</svg>